<svg xmlns="http://www.w3.org/2000/svg" viewBox="0 0 220 240" role="img" aria-label="Francis Le Coq">
  <defs>
    <linearGradient id="body" x1="0" x2="0" y1="0" y2="1"><stop offset="0" stop-color="#ffffff"/><stop offset="1" stop-color="#e2e8f0"/></linearGradient>
    <filter id="shadow" x="-50%" y="-50%" width="200%" height="200%"><feDropShadow dx="0" dy="12" stdDeviation="10" flood-color="#000" flood-opacity=".35"/></filter>
  </defs>
  <ellipse cx="110" cy="216" rx="60" ry="16" fill="#000" opacity=".22"/>
  <g filter="url(#shadow)">
    <path d="M65 109c-20 32-9 80 34 93 50 15 91-24 75-72-11-34-45-52-80-41-12 4-22 10-29 20Z" fill="url(#body)"/>
    <path d="M62 142c-30 5-48-10-52-34 24-2 43 7 53 27" fill="#ef4444"/>
    <path d="M85 92c-8-29 9-55 38-57 31-3 57 21 52 53-5 31-37 48-65 36-12-5-20-16-25-32Z" fill="#fff7ed"/>
    <path d="M114 40c-1-23 12-35 25-22 8-19 29-16 29 4 18-5 29 10 14 25" fill="#ef4444" stroke="#991b1b" stroke-width="7" stroke-linejoin="round"/>
    <circle cx="135" cy="76" r="7" fill="#111827"/>
    <circle cx="138" cy="73" r="2" fill="#fff"/>
    <path d="M158 87l54 17-54 20z" fill="#f97316" stroke="#9a3412" stroke-width="6" stroke-linejoin="round"/>
    <path d="M119 185v34M149 184v35" stroke="#9a3412" stroke-width="9" stroke-linecap="round"/>
    <path d="M107 219h29M137 219h31" stroke="#f59e0b" stroke-width="8" stroke-linecap="round"/>
    <path d="M156 115c9 24 1 50-16 63" fill="none" stroke="#cbd5e1" stroke-width="8" stroke-linecap="round"/>
  </g>
</svg>
