<svg xmlns="http://www.w3.org/2000/svg" viewBox="0 0 128 128" role="img" aria-label="Francis Le Coq">
  <defs>
    <radialGradient id="bg" cx="48%" cy="35%" r="70%">
      <stop offset="0" stop-color="#ffe08a"/><stop offset="0.48" stop-color="#f59e0b"/><stop offset="1" stop-color="#7c2d12"/>
    </radialGradient>
    <filter id="s" x="-20%" y="-20%" width="140%" height="140%"><feDropShadow dx="0" dy="8" stdDeviation="7" flood-opacity=".33"/></filter>
  </defs>
  <rect x="8" y="8" width="112" height="112" rx="31" fill="url(#bg)"/>
  <circle cx="64" cy="64" r="43" fill="#fff7ed" filter="url(#s)"/>
  <path d="M52 75c-11-3-19-13-17-25 2-17 16-27 31-24 15 3 27 15 25 31-2 18-20 25-39 18Z" fill="#f8fafc"/>
  <path d="M61 32c2-15 8-19 15-14 7-10 17-7 17 5 12-3 19 6 10 16" fill="#ef4444" stroke="#991b1b" stroke-width="4" stroke-linejoin="round"/>
  <circle cx="73" cy="45" r="18" fill="#fff7ed"/>
  <circle cx="80" cy="42" r="4" fill="#111827"/>
  <path d="M91 47l24 8-24 9z" fill="#f97316" stroke="#9a3412" stroke-width="3" stroke-linejoin="round"/>
  <path d="M47 67c-11 3-22-3-25-14 9-1 16 1 21 7" fill="#ef4444" opacity=".88"/>
  <path d="M54 87v18M73 86v18" stroke="#9a3412" stroke-width="6" stroke-linecap="round"/>
  <text x="64" y="114" text-anchor="middle" font-family="Arial Black,Arial,sans-serif" font-size="22" fill="#451a03">1F</text>
</svg>
